<?xml version="1.0" standalone="no"?>
<!DOCTYPE svg PUBLIC "-//W3C//DTD SVG 20010904//EN"
 "http://www.w3.org/TR/2001/REC-SVG-20010904/DTD/svg10.dtd">
<svg version="1.0" xmlns="http://www.w3.org/2000/svg"
 width="237.000000pt" height="114.000000pt" viewBox="0 0 237.000000 114.000000"
 preserveAspectRatio="xMidYMid meet">

<g transform="translate(0.000000,114.000000) scale(0.100000,-0.100000)"
fill="#000000" stroke="none">
<path d="M0 570 l0 -570 1185 0 1185 0 0 570 0 570 -1185 0 -1185 0 0 -570z
m818 388 l-3 -33 -143 0 -142 0 0 -287 0 -288 -35 0 -35 0 0 284 0 285 -140 3
-140 3 0 -315 c0 -347 2 -359 63 -404 26 -19 45 -21 230 -24 127 -2 216 1 239
8 44 12 74 47 89 102 9 36 13 39 41 36 25 -2 32 -9 43 -41 17 -51 50 -85 94
-98 22 -6 116 -9 239 -7 l203 3 40 42 c38 42 39 43 39 120 l0 78 -155 155
c-85 85 -155 160 -155 166 0 6 9 19 20 29 21 19 23 17 195 -155 l175 -175 0
-70 c0 -96 -14 -139 -62 -191 -62 -68 -104 -76 -351 -72 -184 3 -206 5 -242
24 -22 12 -48 31 -58 42 -19 21 -19 21 -64 -14 -24 -19 -57 -37 -71 -42 -15
-4 -126 -7 -247 -7 -206 0 -223 1 -260 22 -50 27 -80 58 -100 105 -13 31 -15
95 -15 393 l0 355 356 0 355 0 -3 -32z m635 16 c18 -9 44 -28 60 -42 l27 -26
28 26 c61 57 72 59 332 56 l238 -3 44 -30 c23 -17 53 -49 65 -70 22 -38 23
-51 23 -262 l0 -223 -170 0 -169 0 -3 -143 -3 -142 -180 0 -180 0 -3 33 -3 32
145 0 146 0 0 305 0 305 40 0 40 0 0 -160 0 -160 135 0 135 0 0 175 c0 196 -6
221 -63 255 -29 18 -51 20 -254 20 l-223 0 -30 -27 c-17 -16 -37 -46 -44 -68
-13 -36 -18 -40 -47 -40 -30 0 -34 4 -42 37 -5 23 -22 49 -43 68 l-35 30 -222
0 c-205 0 -225 -2 -255 -20 -43 -26 -62 -74 -62 -152 l0 -63 160 -160 161
-161 -26 -24 -26 -24 -169 169 -170 170 0 90 c0 66 5 101 19 131 19 42 65 85
111 103 14 5 128 10 253 10 191 1 233 -2 260 -15z"/>
</g>
</svg>
