<?xml version="1.0" standalone="no"?>
<!DOCTYPE svg PUBLIC "-//W3C//DTD SVG 20010904//EN"
 "http://www.w3.org/TR/2001/REC-SVG-20010904/DTD/svg10.dtd">
<svg version="1.0" xmlns="http://www.w3.org/2000/svg"
 width="210.000000pt" height="223.000000pt" viewBox="0 0 210.000000 223.000000"
 preserveAspectRatio="xMidYMid meet">

<g transform="translate(0.000000,223.000000) scale(0.100000,-0.100000)"
fill="#000000" stroke="none">
<path d="M0 1115 l0 -1115 1050 0 1050 0 0 1115 0 1115 -1050 0 -1050 0 0
-1115z m1208 767 c77 -61 77 -61 80 -288 2 -112 4 -204 6 -204 1 0 72 38 157
85 84 47 168 88 186 91 38 7 97 -10 139 -42 82 -61 86 -194 8 -265 -16 -15
-96 -66 -177 -114 -159 -94 -203 -108 -272 -85 -47 16 -104 66 -121 107 -11
25 -14 100 -14 311 0 270 -1 280 -21 306 -30 38 -64 49 -105 36 -57 -19 -64
-41 -64 -209 l0 -149 -26 -6 c-14 -4 -34 -4 -45 -1 -18 6 -19 17 -19 160 0 85
5 166 11 182 13 36 66 92 104 109 48 23 130 11 173 -24z m-596 -296 c49 -17
306 -162 337 -190 77 -68 80 -204 6 -276 -19 -18 -132 -88 -252 -156 -225
-126 -263 -156 -263 -211 0 -14 13 -38 29 -54 45 -45 75 -39 217 41 68 39 128
70 132 70 9 0 42 -53 42 -68 0 -6 -62 -44 -138 -86 -159 -87 -202 -95 -282
-53 -104 55 -121 208 -34 288 16 14 90 61 165 103 75 42 144 82 153 89 16 11
-1 24 -139 107 -169 102 -194 127 -203 206 -9 85 37 162 115 189 48 18 68 18
115 1z m1062 -615 c152 -92 180 -125 181 -218 0 -95 -83 -176 -184 -177 -41
-1 -66 10 -215 97 -92 54 -169 97 -171 95 -2 -2 -7 -82 -10 -178 -8 -194 -19
-237 -74 -278 -77 -57 -171 -51 -236 13 -50 51 -57 90 -53 310 3 216 3 216 82
279 34 28 45 31 109 31 l72 0 231 -137 c255 -152 282 -161 329 -113 31 30 34
92 8 123 -10 11 -73 52 -141 91 -116 68 -122 73 -111 94 17 32 30 47 41 47 6
0 69 -36 142 -79z"/>
<path d="M1468 1379 l-178 -101 0 -38 c0 -50 34 -85 89 -95 41 -7 49 -3 198
86 124 75 158 100 169 126 23 52 -10 107 -72 118 -24 5 -60 -11 -206 -96z"/>
<path d="M515 1498 c-11 -6 -25 -19 -32 -27 -18 -24 -16 -86 5 -109 14 -16
240 -154 329 -201 44 -23 103 31 103 92 0 51 -35 83 -183 166 -153 86 -189 99
-222 79z"/>
<path d="M1030 824 l-31 -36 3 -190 3 -190 28 -24 c39 -33 81 -31 118 5 l29
29 0 210 0 209 -25 11 c-50 23 -90 15 -125 -24z"/>
</g>
</svg>
